<?xml version="1.0" encoding="UTF-8"?>
<!DOCTYPE svg PUBLIC "-//W3C//DTD SVG 1.0//EN" "http://www.w3.org/TR/2001/REC-SVG-20010904/DTD/svg10.dtd">
<!-- Creator: CorelDRAW X7 -->
<svg xmlns="http://www.w3.org/2000/svg" xml:space="preserve" width="46px" height="46px" version="1.0" style="shape-rendering:geometricPrecision; text-rendering:geometricPrecision; image-rendering:optimizeQuality; fill-rule:evenodd; clip-rule:evenodd"
viewBox="0 0 49615 49615"
 xmlns:xlink="http://www.w3.org/1999/xlink">
 <defs>
  <style type="text/css">
   <![CDATA[
    .fil0 {fill:#E60E85}
    .fil1 {fill:white;fill-rule:nonzero}
   ]]>
  </style>
 </defs>
 <g id="Capa_x0020_1">
  <metadata id="CorelCorpID_0Corel-Layer"/>
  <circle class="fil0" cx="24808" cy="24808" r="24808"/>
  <g>
   <path class="fil1" d="M21882 31244l12129 -12129 1144 1144 -12129 12129 -1381 -572 237 -572zm1144 1144c-315,315 -828,315 -1144,0 -316,-316 -316,-829 0,-1144l1144 1144zm237 -3095l0 2523 -1618 0 0 -2523 809 -809 809 809zm-1618 0c0,-447 363,-809 809,-809 447,0 809,362 809,809l-1618 0zm-1322 -809l2131 0 0 1618 -2131 0 -809 -809 809 -809zm0 1618c-447,0 -809,-363 -809,-809 0,-447 362,-809 809,-809l0 1618zm809 -2941l0 2132 -1618 0 0 -2132 809 -809 809 809zm-1618 0c0,-446 363,-809 809,-809 447,0 809,363 809,809l-1618 0zm-1714 -809l2523 0 0 1618 -2523 0 -572 -1381 572 -237zm0 1618c-447,0 -809,-362 -809,-809 0,-446 362,-809 809,-809l0 1618zm12700 -12365l-12128 12128 -1144 -1144 12128 -12129 1144 1145zm-1144 -1145c316,-315 828,-315 1144,0 316,316 316,829 0,1145l-1144 -1145zm5799 5799l-1144 -1144 0 0 214 -235 173 -234 137 -232 104 -230 75 -229 47 -226 22 -226 -3 -225 -25 -224 -49 -222 -70 -219 -91 -214 -111 -209 -130 -200 -148 -190 -163 -178 -178 -163 -189 -147 -201 -131 -208 -111 -215 -91 -218 -70 -223 -48 -224 -26 -225 -2 -225 21 -227 48 -228 74 -230 104 -233 137 -234 173 -235 215 -1144 -1145 351 -318 366 -272 381 -225 391 -177 398 -129 400 -84 399 -39 395 5 387 44 377 81 364 116 350 149 333 177 316 205 296 231 277 255 254 276 231 297 205 316 178 333 148 349 116 364 82 377 44 387 4 395 -39 399 -83 401 -130 397 -177 391 -225 381 -271 367 -319 350 0 0zm0 0c-316,316 -828,316 -1144,0 -316,-315 -316,-828 0,-1144l1144 1144zm-12370 12295l-8432 3778 -662 -1476 8433 -3778 1139 738 -478 738zm-661 -1476c407,-183 886,-1 1068,407 183,407 1,886 -407,1069l-661 -1476zm1139 -1785l0 2523 -1618 0 0 -2523 809 -809 809 809zm-1618 0c0,-447 363,-809 809,-809 447,0 809,362 809,809l-1618 0zm-1322 -809l2131 0 0 1618 -2131 0 -809 -809 809 -809zm0 1618c-447,0 -809,-363 -809,-809 0,-447 362,-809 809,-809l0 1618zm809 -2941l0 2132 -1618 0 0 -2132 809 -809 809 809zm-1618 0c0,-446 363,-809 809,-809 447,0 809,363 809,809l-1618 0zm-1714 -809l2523 0 0 1618 -2523 0 -738 -1140 738 -478zm0 1618c-447,0 -809,-362 -809,-809 0,-446 362,-809 809,-809l0 1618zm-4516 7293l3778 -8433 1476 662 -3778 8432 -407 408 -1069 -1069zm1476 661c-182,408 -661,590 -1069,408 -407,-183 -590,-662 -407,-1069l1476 661zm12829 -17408c-316,316 -828,316 -1144,0 -316,-316 -316,-828 0,-1144l1144 1144zm4655 4655l-1144 -1144 214 -236 173 -234 137 -232 104 -230 75 -228 47 -227 22 -226 -3 -225 -25 -224 -49 -222 -70 -219 -91 -215 -111 -208 -130 -200 -148 -190 -163 -177 -178 -164 -189 -148 -200 -130 -209 -111 -214 -91 -220 -70 -222 -48 -223 -26 -225 -2 -226 21 -227 48 -228 74 -230 104 -233 137 -234 174 -235 214 -1144 -1144 351 -319 367 -272 380 -224 391 -177 398 -130 400 -84 399 -38 395 3 387 45 378 81 363 116 350 148 333 178 316 206 297 230 276 254 254 277 231 297 205 316 178 332 148 350 116 364 82 377 44 387 4 395 -39 399 -83 401 -130 398 -177 390 -225 381 -272 367 -318 351zm0 0c-316,316 -829,316 -1144,0 -316,-316 -316,-829 0,-1144l1144 1144zm-16145 8494c-436,-100 -708,-534 -609,-969 100,-436 534,-708 969,-608l-360 1577zm3459 1633l-1589 305 -19 -90 -22 -88 -25 -86 -28 -87 -31 -84 -34 -82 -37 -82 -41 -80 -41 -77 -45 -75 -48 -75 -50 -73 -53 -70 -55 -69 -58 -66 -60 -65 -62 -62 -64 -59 -66 -58 -69 -55 -71 -53 -72 -50 -74 -48 -77 -45 -77 -42 -80 -40 -82 -37 -82 -34 -84 -31 -86 -28 -88 -25 -89 -22 360 -1577 147 36 144 42 142 46 141 52 138 56 134 61 132 66 130 71 126 74 123 80 121 83 116 87 113 92 111 95 106 100 104 103 98 106 96 110 92 114 87 116 83 120 79 122 75 127 71 130 65 131 61 133 56 138 52 139 47 142 41 144 37 146 31 148zm0 0c84,439 -203,863 -642,947 -438,84 -862,-203 -947,-642l1589 -305zm4286 -6382c-316,316 -829,316 -1144,0 -316,-316 -316,-828 0,-1144l1144 1144zm6684 -6684l-6684 6684 -1144 -1144 6683 -6684 1145 1144zm-1145 -1144c316,-316 829,-316 1145,0 315,316 315,828 0,1144l-1145 -1144z"/>
  </g>
 </g>
</svg>
