<?xml version="1.0" encoding="UTF-8"?>
<!DOCTYPE svg PUBLIC "-//W3C//DTD SVG 1.0//EN" "http://www.w3.org/TR/2001/REC-SVG-20010904/DTD/svg10.dtd">
<!-- Creator: CorelDRAW X7 -->
<svg xmlns="http://www.w3.org/2000/svg" xml:space="preserve" width="46px" height="46px" version="1.0" style="shape-rendering:geometricPrecision; text-rendering:geometricPrecision; image-rendering:optimizeQuality; fill-rule:evenodd; clip-rule:evenodd"
viewBox="0 0 49687 49687"
 xmlns:xlink="http://www.w3.org/1999/xlink">
 <defs>
  <style type="text/css">
   <![CDATA[
    .fil0 {fill:#E60E85}
    .fil1 {fill:white;fill-rule:nonzero}
   ]]>
  </style>
 </defs>
 <g id="Capa_x0020_1">
  <metadata id="CorelCorpID_0Corel-Layer"/>
  <circle class="fil0" cx="24844" cy="24844" r="24844"/>
  <g>
   <path class="fil1" d="M16261 29605l-6459 -1744 422 -1564 6459 1744 231 1461 -653 103zm422 -1564c432,116 688,561 571,993 -116,431 -561,687 -993,571l422 -1564zm21273 -12240l-21042 13701 -883 -1358 21041 -13701 119 -64 765 1422zm-884 -1358c375,-244 877,-138 1121,237 244,375 138,877 -237,1121l-884 -1358zm-27382 11893l27501 -11957 646 1486 -27501 11957 -534 39 -112 -1525zm646 1486c-410,178 -888,-10 -1066,-420 -178,-410 10,-888 420,-1066l646 1486zm19554 5460l-9092 -2453 422 -1564 9092 2453 534 1100 -956 464zm422 -1564c432,116 687,561 571,993 -116,431 -561,687 -993,571l422 -1564zm7947 -16278l-7413 17378 -1490 -636 7413 -17378 202 -283 1288 919zm-1490 -636c176,-411 652,-603 1063,-427 411,175 603,651 427,1063l-1490 -636zm-16303 14642l16505 -14925 1086 1202 -16505 14925 -754 181 -332 -1383zm1086 1202c-331,299 -844,274 -1144,-58 -299,-332 -274,-844 58,-1144l1086 1202zm-5815 -1232c-190,-405 -16,-888 389,-1078 405,-189 887,-15 1077,390l-1466 688zm3587 7653l-3587 -7653 1466 -688 3588 7653 69 451 -1536 237zm1467 -688c189,405 15,888 -390,1077 -405,190 -887,16 -1077,-389l1467 -688zm946 -6166l-877 6617 -1606 -213 877 -6617 1606 213zm-1606 -213c59,-443 466,-755 910,-696 443,58 755,466 696,909l-1606 -213zm5086 1609l-4533 5546 -1254 -1025 4533 -5546 1254 1025zm-1254 -1025c283,-346 793,-397 1140,-114 346,282 397,793 114,1139l-1254 -1025zm-4533 5546l4533 -5546 1254 1025 -4533 5546 -1254 -1025zm1254 1025c-283,346 -793,398 -1139,115 -347,-283 -398,-794 -115,-1140l1254 1025z"/>
  </g>
 </g>
</svg>
