<?xml version="1.0" encoding="utf-8"?>
<!-- Generator: Adobe Illustrator 21.1.0, SVG Export Plug-In . SVG Version: 6.00 Build 0)  -->
<svg version="1.1" id="Layer_1" xmlns="http://www.w3.org/2000/svg" xmlns:xlink="http://www.w3.org/1999/xlink" x="0px" y="0px"
	 viewBox="0 0 240 99.8" style="enable-background:new 0 0 240 99.8;" xml:space="preserve">
<style type="text/css">
	.st0{fill:#FEFEFE;}
</style>
<g id="Capa_x0020_1">
	<path class="st0" d="M84.9,21.4c1.1,1,1.8,2.2,2.4,3.5c1.9,4.7,0.5,7.9-2.4,11.7l-7.6,9.9l-7.6-9.8c-2.9-3.8-4.3-7-2.4-11.7
		c0.5-1.3,1.3-2.5,2.4-3.6c1-1.1,2.2-1.9,3.6-2.4c1.3-0.5,2.7-0.8,4.1-0.8c1.4,0,2.7,0.3,4.1,0.8C82.6,19.5,83.8,20.3,84.9,21.4z
		 M64.8,77.8h-5.9v-11c0-1.6-0.6-2.9-1.7-4.1c-1.1-1.1-2.5-1.7-4.1-1.7c-2.1,0-3.8,0.9-4.9,2.7v0v13.9h-5.9v-11c0-1.6-0.6-2.9-1.7-4
		c-1.1-1.1-2.5-1.7-4.1-1.7c-1.6,0-3,0.6-4.1,1.7c-1.1,1.1-1.7,2.5-1.7,4.1v11H25v-11c0-3.2,1.1-6,3.4-8.2c2.3-2.2,5-3.4,8.3-3.4
		c3.2,0,6,1.1,8.3,3.4c2.3-2.3,5-3.4,8.3-3.4c3.2,0,6,1.1,8.3,3.4c2.3,2.2,3.4,5,3.4,8.2V77.8z M94.6,77.8h-6.2l-1.2-3.4
		c-2.3,2.7-5.3,4.1-8.9,4.1c-3.2,0-6-1.1-8.2-3.4c-2.2-2.3-3.4-5-3.4-8.2c0-2.5,0.7-4.7,2.1-6.7c1.4-2,3.2-3.4,5.6-4.2
		c1.4-0.5,2.7-0.7,4-0.7c2.5,0,4.7,0.7,6.7,2.1c2,1.4,3.4,3.3,4.2,5.6L94.6,77.8z M84,66.9c0-2-0.8-3.6-2.5-4.7c-1-0.7-2.1-1-3.3-1
		c-2,0-3.6,0.8-4.7,2.4c-0.7,1-1,2.1-1,3.3c0,2,0.8,3.6,2.5,4.7c1,0.7,2.1,1,3.3,1c1.6,0,3-0.6,4.1-1.7C83.5,69.8,84,68.5,84,66.9z
		 M113.1,74.7c-2.3,2.2-4.9,3.3-8,3.3c-3.3,0-6-1.1-8.3-3.4c-2.2-2.2-3.4-5-3.4-8.3c0-3.2,1.1-6,3.4-8.2c2.3-2.2,5-3.4,8.3-3.4
		c3,0,5.5,1,7.7,3l-3.5,4.7c-1.1-1.2-2.5-1.8-4.2-1.8c-1.6,0-3,0.6-4.1,1.7c-1.1,1.1-1.7,2.5-1.7,4c0,1.6,0.6,2.9,1.7,4.1
		c1.1,1.1,2.5,1.7,4.1,1.7c1.7,0,3.2-0.7,4.3-2L113.1,74.7z M126.4,60.2c-1.6,0-3,0.6-4.1,1.7c-1.1,1.1-1.7,2.5-1.7,4.1v11h-5.9v-11
		c0-3.2,1.1-6,3.4-8.2c2.3-2.2,5-3.4,8.3-3.4V60.2z M149.7,66.8c0,3.2-1.1,6-3.4,8.2c-2.2,2.3-5,3.4-8.2,3.4c-3.3,0-6-1.1-8.3-3.4
		c-2.2-2.2-3.4-5-3.4-8.3c0-3.2,1.1-6,3.4-8.2c2.3-2.2,5-3.4,8.3-3.4c3.2,0,6,1.1,8.2,3.4C148.6,60.8,149.7,63.6,149.7,66.8z
		 M143.8,66.8c0-1.6-0.6-2.9-1.7-4c-1.1-1.1-2.5-1.7-4-1.7c-1.6,0-3,0.6-4.1,1.7c-1.1,1.1-1.7,2.5-1.7,4c0,1.6,0.6,2.9,1.7,4.1
		c1.1,1.1,2.5,1.7,4.1,1.7c1.6,0,2.9-0.6,4.1-1.7C143.3,69.8,143.8,68.4,143.8,66.8z M168.7,70.7c0,1.4-0.5,2.6-1.4,3.8
		c-1.9,2.3-4.5,3.4-7.9,3.3c-1.4,0-2.8-0.3-4.5-0.9c-1.6-0.6-2.9-1.3-3.9-2.2l3.3-4.2c1.6,1.5,3.2,2.2,5,2.2h0.1
		c0.7,0,1.4-0.1,2-0.4c0.8-0.3,1.1-0.8,1.1-1.5v-0.2c-0.1-0.7-0.5-1.1-1.3-1.4c-0.3-0.1-1-0.2-2-0.4c-1.3-0.3-2.4-0.6-3.3-1
		c-2.6-1.1-4-3.1-4-6c0-2.7,1.3-4.8,4-6.1c1.2-0.6,2.5-0.9,3.9-1c1.4,0,3,0.2,4.5,0.7c1.8,0.6,3.1,1.4,3.8,2.4l-3.9,3.5
		c-1-1-2.1-1.6-3.3-1.6c-1.9,0-2.8,0.6-2.8,1.8v0.1c0,0.6,0.8,1.1,2.3,1.5c0.1,0,1.1,0.2,2.9,0.6c3.6,0.7,5.5,2.9,5.5,6.7V70.7z
		 M198.6,77.3h-6.2l-1.2-3.4c-2.3,2.7-5.3,4.1-8.9,4.1c-3.2,0-6-1.1-8.2-3.4c-2.2-2.3-3.4-5-3.4-8.2c0-2.5,0.7-4.7,2.1-6.7
		c1.4-2,3.2-3.4,5.6-4.2c1.4-0.5,2.7-0.7,4-0.7c2.5,0,4.7,0.7,6.7,2.1c2,1.4,3.4,3.3,4.2,5.6L198.6,77.3z M188,66.4
		c0-2-0.8-3.6-2.5-4.7c-1-0.7-2.1-1-3.3-1c-2,0-3.6,0.8-4.7,2.4c-0.7,1-1,2.1-1,3.3c0,2,0.8,3.6,2.5,4.7c1,0.7,2.1,1,3.3,1
		c1.6,0,3-0.6,4.1-1.7C187.5,69.4,188,68,188,66.4z M221.5,66.8c0,3.2-1.1,6-3.4,8.2c-2.2,2.3-5,3.4-8.2,3.4c-3.3,0-6-1.1-8.3-3.4
		c-2.2-2.2-3.4-5-3.4-8.3c0-3.2,1.1-6,3.4-8.2c2.3-2.2,5-3.4,8.3-3.4c2.1,0,4,0.5,5.7,1.5V43.4h5.9V66.8z M215.6,66.8
		c0-1.6-0.6-2.9-1.7-4c-1.1-1.1-2.5-1.7-4-1.7c-1.6,0-3,0.6-4.1,1.7c-1.1,1.1-1.7,2.5-1.7,4c0,1.6,0.6,2.9,1.7,4.1
		c1.1,1.1,2.5,1.7,4.1,1.7c1.6,0,2.9-0.6,4.1-1.7C215.1,69.8,215.6,68.4,215.6,66.8z M109.6,38.7c1.7,5.8-1.7,11.8-7.4,13.4
		c-2.7,0.8-5.7,0-8.2-1l-11.6-4.6l7.4-10c1.7-2.3,3.7-4.5,6.5-5.3C102,29.6,108,32.9,109.6,38.7z M44.9,38.7
		c-1.7,5.8,1.7,11.8,7.4,13.4c2.7,0.8,5.7,0,8.2-1l11.6-4.6l-7.4-10c-1.7-2.3-3.7-4.5-6.5-5.3C52.5,29.6,46.5,32.9,44.9,38.7z"/>
</g>
<g>
	<path class="st0" d="M29.1,96.6c-1.3,0-2.3-0.4-3-1.2S25,93.5,25,92c0-1.5,0.4-2.6,1.1-3.5c0.7-0.8,1.8-1.2,3.1-1.3
		c0.8,0,1.5,0.1,2.2,0.4l-0.2,0.7c-0.8-0.2-1.5-0.4-2-0.4c-1.1,0-2,0.4-2.5,1.1s-0.8,1.6-0.8,2.9c0,1.2,0.3,2.2,0.9,2.9
		c0.6,0.7,1.4,1,2.4,1c0.8,0,1.6-0.2,2.2-0.5l0,0.8C30.8,96.4,30.1,96.6,29.1,96.6L29.1,96.6z"/>
	<path class="st0" d="M33.9,91.9c0,1.2,0.3,2.2,0.8,2.9c0.6,0.7,1.3,1,2.3,1s1.8-0.3,2.3-1.1c0.5-0.7,0.8-1.6,0.8-2.9
		c0-1.2-0.3-2.2-0.8-2.9c-0.5-0.7-1.3-1-2.3-1c-1,0-1.7,0.4-2.3,1.1C34.1,89.7,33.9,90.7,33.9,91.9L33.9,91.9z M40.9,91.8
		c0,1.5-0.3,2.6-1,3.4c-0.7,0.8-1.7,1.2-2.9,1.2c-0.8,0-1.5-0.2-2.1-0.6c-0.6-0.4-1.1-0.9-1.4-1.6c-0.3-0.7-0.5-1.5-0.5-2.4
		c0-1.5,0.3-2.6,1-3.4c0.7-0.8,1.7-1.2,2.9-1.2c1.2,0,2.2,0.4,2.9,1.2C40.6,89.3,40.9,90.4,40.9,91.8L40.9,91.8z"/>
	<path class="st0" d="M49.7,96.3l0-5.8c0-0.9-0.2-1.6-0.6-2c-0.4-0.4-1-0.6-1.8-0.6c-1.1,0-1.8,0.3-2.3,0.8
		c-0.5,0.5-0.7,1.4-0.7,2.6l0,4.9h-0.8l-0.1-8.9l0.7,0l0.2,1.2h0c0.6-0.9,1.6-1.4,3.1-1.4c2,0,3.1,1.1,3.1,3.3l0,5.9H49.7z"/>
	<path class="st0" d="M56.7,87.8c-0.9,0-1.6,0.3-2.1,0.9c-0.5,0.6-0.8,1.4-0.9,2.5l5.5-0.1c0-1-0.2-1.8-0.7-2.4
		C58.1,88.1,57.5,87.8,56.7,87.8L56.7,87.8z M57,96.4c-1.3,0-2.3-0.4-3.1-1.2c-0.7-0.8-1.1-1.9-1.1-3.3c0-1.4,0.3-2.6,1-3.4
		c0.7-0.9,1.6-1.3,2.9-1.3c1.1,0,1.9,0.3,2.5,1.1c0.6,0.7,0.9,1.7,1,3v0.7l-6.4,0c0,1.2,0.3,2.2,0.9,2.8c0.6,0.7,1.4,1,2.4,1
		c0.5,0,1-0.1,1.4-0.1c0.4-0.1,0.9-0.2,1.5-0.5v0.7c-0.5,0.2-1,0.4-1.4,0.5C58,96.3,57.5,96.4,57,96.4L57,96.4z"/>
	<path class="st0" d="M66.2,96.3c-1.3,0-2.3-0.4-3-1.2c-0.7-0.8-1.1-1.9-1.1-3.4c0-1.5,0.3-2.6,1.1-3.5c0.7-0.8,1.8-1.2,3.1-1.2
		c0.8,0,1.5,0.1,2.2,0.4l-0.2,0.7c-0.8-0.3-1.4-0.4-2-0.4c-1.1,0-1.9,0.3-2.5,1c-0.6,0.7-0.8,1.7-0.8,2.9c0,1.2,0.3,2.1,0.9,2.8
		c0.6,0.7,1.4,1,2.4,1c0.8,0,1.6-0.2,2.3-0.4v0.7C67.9,96.1,67.2,96.3,66.2,96.3L66.2,96.3z"/>
	<path class="st0" d="M73,95.5c0.5,0,1,0,1.4-0.1V96c-0.4,0.1-0.9,0.2-1.4,0.2c-0.8,0-1.4-0.2-1.8-0.6c-0.4-0.4-0.6-1.1-0.6-2l0-5.8
		h-1.3v-0.5l1.3-0.4l0.4-2h0.4l0,2.2l2.6,0l0,0.7l-2.6,0l0,5.7c0,0.7,0.1,1.2,0.4,1.5C72.1,95.4,72.5,95.5,73,95.5L73,95.5z"/>
	<path class="st0" d="M78.4,95.5c1,0,1.7-0.3,2.3-0.8c0.5-0.6,0.8-1.3,0.8-2.3v-0.9l-1.6,0.1c-1.2,0.1-2.1,0.3-2.7,0.6
		c-0.5,0.3-0.8,0.8-0.8,1.6c0,0.6,0.2,1,0.5,1.3C77.3,95.3,77.8,95.5,78.4,95.5L78.4,95.5z M81.7,96l-0.2-1.4h-0.1
		c-0.4,0.6-0.9,1-1.4,1.2c-0.5,0.2-1,0.3-1.7,0.3c-0.9,0-1.6-0.2-2.1-0.7c-0.5-0.4-0.7-1.1-0.7-1.9c0-0.9,0.4-1.6,1.1-2
		s1.8-0.7,3.2-0.8l1.7-0.1v-0.6c0-0.9-0.2-1.5-0.6-1.9c-0.3-0.4-0.9-0.7-1.7-0.7c-0.8,0-1.7,0.2-2.6,0.7l-0.3-0.7
		c1-0.5,2-0.7,2.9-0.7c1,0,1.7,0.2,2.2,0.7c0.5,0.5,0.7,1.3,0.7,2.4l0.1,6H81.7z"/>
	<path class="st0" d="M96.4,95.9l0-5.9c0-0.9-0.2-1.5-0.5-1.9c-0.3-0.4-0.9-0.6-1.6-0.6c-0.9,0-1.6,0.3-2,0.8
		c-0.4,0.5-0.7,1.3-0.7,2.4l0,5.2h-0.8l0-6.1c0-1.5-0.7-2.3-2.1-2.3c-1,0-1.6,0.3-2,0.8C86.2,89,86,89.8,86,91.1l0,4.9l-0.8,0
		l-0.1-9h0.7l0.2,1.2h0.1c0.2-0.4,0.6-0.8,1-1c0.5-0.2,1-0.4,1.5-0.4c1.4,0,2.3,0.5,2.7,1.6h0c0.3-0.5,0.7-0.9,1.1-1.2
		c0.5-0.3,1.1-0.4,1.7-0.4c1,0,1.7,0.2,2.2,0.8c0.5,0.5,0.7,1.3,0.7,2.5l0,5.9H96.4z"/>
	<path class="st0" d="M100.4,91.4c0,1.2,0.3,2.2,0.8,2.9c0.6,0.7,1.3,1,2.3,1c1,0,1.7-0.4,2.3-1.1c0.6-0.7,0.8-1.7,0.8-2.9
		c0-1.2-0.3-2.2-0.8-2.9c-0.6-0.7-1.3-1-2.3-1s-1.7,0.3-2.3,1C100.7,89.2,100.4,90.2,100.4,91.4L100.4,91.4z M107.5,91.4
		c0,1.5-0.3,2.6-1,3.4c-0.7,0.8-1.7,1.2-2.9,1.3c-0.8,0-1.5-0.2-2.1-0.6c-0.6-0.4-1.1-0.9-1.4-1.6c-0.3-0.7-0.5-1.5-0.5-2.4
		c0-1.5,0.3-2.6,1-3.4c0.7-0.8,1.7-1.2,2.9-1.2c1.2,0,2.2,0.4,2.9,1.2C107.1,88.8,107.5,89.9,107.5,91.4L107.5,91.4z"/>
	<path class="st0" d="M115.6,93.4c0,0.8-0.3,1.4-0.9,1.9c-0.6,0.4-1.5,0.7-2.6,0.7c-1.2,0-2.1-0.2-2.9-0.6v-0.9
		c0.9,0.4,1.9,0.7,2.9,0.7c0.9,0,1.6-0.2,2-0.5c0.5-0.3,0.7-0.7,0.7-1.2c0-0.4-0.2-0.8-0.6-1.1c-0.4-0.3-1-0.6-1.8-0.9
		c-0.9-0.3-1.6-0.6-1.9-0.8c-0.4-0.2-0.7-0.5-0.8-0.8c-0.2-0.3-0.3-0.7-0.3-1.1c0-0.7,0.3-1.2,0.8-1.6c0.6-0.4,1.3-0.6,2.4-0.6
		c1,0,1.9,0.2,2.8,0.5L115,88c-0.9-0.4-1.7-0.5-2.4-0.5s-1.3,0.1-1.7,0.4c-0.4,0.2-0.7,0.6-0.7,1c0,0.5,0.2,0.8,0.5,1.1
		c0.3,0.3,1,0.6,2,0.9c0.8,0.3,1.4,0.6,1.8,0.8c0.4,0.2,0.7,0.5,0.8,0.8C115.5,92.7,115.6,93,115.6,93.4L115.6,93.4z"/>
	<path class="st0" d="M122.6,89.6c0,0.7,0.2,1.2,0.7,1.6c0.4,0.4,1,0.6,1.7,0.6c0.7,0,1.3-0.2,1.7-0.6c0.4-0.4,0.6-0.9,0.6-1.6
		c0-0.8-0.2-1.3-0.6-1.7c-0.4-0.4-1-0.6-1.7-0.6c-0.7,0-1.3,0.2-1.7,0.6C122.8,88.3,122.6,88.9,122.6,89.6L122.6,89.6z M122,97.3
		c0,1.2,0.9,1.8,2.8,1.8c2.4,0,3.5-0.8,3.5-2.3c0-0.5-0.2-0.9-0.6-1.1c-0.4-0.2-1-0.4-1.8-0.4l-1.5,0C122.8,95.3,122,96,122,97.3
		L122,97.3z M129.2,86.7v0.6l-1.8,0.1c0.5,0.6,0.7,1.3,0.7,2c0,0.9-0.3,1.6-0.8,2.1c-0.6,0.5-1.3,0.8-2.3,0.8c-0.4,0-0.7,0-0.8,0
		c-0.3,0.2-0.6,0.4-0.7,0.6c-0.2,0.2-0.2,0.5-0.2,0.7c0,0.3,0.1,0.5,0.3,0.6c0.2,0.2,0.6,0.2,1.1,0.2l1.6,0c1,0,1.7,0.2,2.2,0.6
		c0.5,0.4,0.8,1,0.8,1.7c0,0.9-0.4,1.7-1.1,2.2c-0.7,0.5-1.8,0.8-3.3,0.8c-1.1,0-2-0.2-2.6-0.6c-0.6-0.4-0.9-1.1-0.9-1.8
		c0-0.6,0.2-1.1,0.6-1.5s0.9-0.7,1.6-0.8c-0.3-0.1-0.5-0.3-0.7-0.5s-0.2-0.5-0.2-0.7c0-0.6,0.4-1.1,1.1-1.6c-0.5-0.2-0.9-0.5-1.2-1
		c-0.3-0.5-0.4-1-0.4-1.6c0-0.9,0.2-1.6,0.8-2.1c0.6-0.6,1.3-0.8,2.3-0.8c0.6,0,1,0.1,1.4,0.2H129.2z"/>
	<path class="st0" d="M134.4,87.2c-0.9,0-1.6,0.3-2.1,0.9c-0.5,0.6-0.8,1.4-0.9,2.5l5.5-0.1c0-1-0.2-1.8-0.7-2.4
		C135.8,87.5,135.2,87.2,134.4,87.2L134.4,87.2z M134.7,95.8c-1.3,0-2.3-0.4-3-1.2c-0.7-0.8-1.1-1.9-1.1-3.3c0-1.4,0.3-2.6,1-3.4
		c0.7-0.9,1.6-1.3,2.8-1.3c1.1,0,1.9,0.3,2.5,1.1c0.6,0.7,0.9,1.7,0.9,3v0.7l-6.4,0.1c0,1.2,0.3,2.2,0.9,2.8c0.6,0.6,1.4,1,2.4,0.9
		c0.5,0,1,0,1.3-0.1c0.4-0.1,0.9-0.2,1.5-0.5v0.7c-0.5,0.2-1,0.4-1.4,0.5S135.2,95.8,134.7,95.8L134.7,95.8z"/>
	<path class="st0" d="M146.6,95.6l0-5.8c0-0.9-0.2-1.6-0.6-2c-0.4-0.4-1-0.6-1.8-0.6c-1.1,0-1.8,0.3-2.3,0.8
		c-0.5,0.6-0.7,1.4-0.7,2.6l0,4.9l-0.8,0l-0.1-9h0.7l0.2,1.2h0c0.6-0.9,1.6-1.4,3.1-1.4c2,0,3.1,1.1,3.1,3.3l0,5.9H146.6z"/>
	<path class="st0" d="M153.6,87.1c-0.9,0-1.6,0.3-2.1,0.9c-0.5,0.6-0.8,1.4-0.9,2.4l5.5,0c0-1.1-0.2-1.9-0.7-2.4
		C155,87.4,154.4,87.1,153.6,87.1L153.6,87.1z M153.9,95.7c-1.3,0-2.3-0.4-3.1-1.2c-0.7-0.8-1.1-1.9-1.1-3.4c0-1.4,0.3-2.6,1-3.4
		c0.7-0.8,1.6-1.3,2.9-1.3c1.1,0,1.9,0.4,2.5,1.1c0.6,0.7,0.9,1.7,1,3v0.7l-6.4,0c0,1.2,0.3,2.2,0.9,2.8c0.6,0.7,1.4,1,2.4,1
		c0.5,0,1,0,1.4-0.1c0.4-0.1,0.9-0.2,1.5-0.5v0.7c-0.5,0.2-1,0.4-1.4,0.5C154.9,95.6,154.4,95.7,153.9,95.7L153.9,95.7z"/>
	<path class="st0" d="M163,86.3c0.4,0,0.8,0,1.2,0.1l-0.1,0.8c-0.4-0.1-0.8-0.2-1.2-0.2c-0.8,0-1.4,0.3-1.9,1
		c-0.5,0.7-0.7,1.5-0.7,2.5l0,4.9h-0.8l-0.1-9h0.7l0.1,1.6h0.1c0.3-0.7,0.7-1.1,1.1-1.4C161.9,86.5,162.4,86.3,163,86.3L163,86.3z"
		/>
	<path class="st0" d="M168.2,94.8c1,0,1.7-0.3,2.3-0.8c0.6-0.6,0.8-1.3,0.8-2.3v-0.9l-1.6,0.1c-1.2,0.1-2.1,0.3-2.7,0.6
		c-0.5,0.3-0.8,0.8-0.8,1.6c0,0.6,0.2,1,0.5,1.3C167.1,94.7,167.6,94.8,168.2,94.8L168.2,94.8z M171.6,95.4l-0.2-1.4h-0.1
		c-0.4,0.6-0.9,1-1.4,1.2c-0.5,0.2-1,0.3-1.7,0.3c-0.9,0-1.6-0.2-2.1-0.7c-0.5-0.4-0.7-1.1-0.7-1.9c0-0.9,0.4-1.6,1.1-2
		c0.7-0.5,1.8-0.7,3.2-0.8l1.7-0.1v-0.6c0-0.9-0.2-1.5-0.6-1.9c-0.3-0.4-0.9-0.7-1.7-0.7c-0.8,0-1.7,0.2-2.6,0.7l-0.3-0.7
		c1-0.5,2-0.7,2.9-0.7c1,0,1.7,0.2,2.2,0.7c0.5,0.5,0.7,1.3,0.8,2.4l0,6H171.6z"/>
	<path class="st0" d="M178.6,95.5c-1.3,0-2.3-0.4-3-1.2c-0.7-0.8-1.1-1.9-1.1-3.4c0-1.5,0.3-2.6,1.1-3.5c0.7-0.8,1.8-1.2,3.1-1.3
		c0.8,0,1.5,0.1,2.2,0.4l-0.2,0.7c-0.8-0.2-1.4-0.4-2-0.4c-1.1,0-1.9,0.4-2.5,1.1c-0.6,0.7-0.8,1.6-0.8,2.9c0,1.2,0.3,2.2,0.9,2.9
		c0.6,0.7,1.4,1,2.4,1c0.8,0,1.6-0.2,2.3-0.4v0.7C180.3,95.3,179.6,95.5,178.6,95.5L178.6,95.5z"/>
	<path class="st0" d="M183.9,95.3l-0.8,0l-0.1-9h0.8L183.9,95.3z M182.8,83.9c0-0.5,0.2-0.8,0.5-0.8c0.2,0,0.3,0.1,0.4,0.2
		c0.1,0.1,0.2,0.3,0.2,0.6s-0.1,0.5-0.2,0.6c-0.1,0.2-0.2,0.2-0.4,0.2C183,84.6,182.9,84.4,182.8,83.9L182.8,83.9z"/>
	<path class="st0" d="M187.2,90.8c0,1.2,0.3,2.2,0.8,2.9c0.5,0.7,1.3,1,2.3,1c1,0,1.7-0.3,2.3-1.1c0.6-0.7,0.8-1.6,0.8-2.9
		c0-1.2-0.3-2.2-0.8-2.9c-0.6-0.7-1.3-1-2.3-1c-1,0-1.7,0.3-2.3,1C187.4,88.6,187.1,89.5,187.2,90.8L187.2,90.8z M194.2,90.7
		c0,1.5-0.3,2.6-1.1,3.4c-0.7,0.8-1.7,1.2-2.9,1.2c-0.8,0-1.5-0.2-2.1-0.6c-0.6-0.4-1.1-0.9-1.4-1.6c-0.3-0.7-0.5-1.5-0.5-2.4
		c0-1.5,0.3-2.6,1.1-3.4c0.7-0.8,1.6-1.2,2.9-1.2c1.2,0,2.2,0.4,2.9,1.2C193.9,88.1,194.2,89.3,194.2,90.7L194.2,90.7z"/>
	<path class="st0" d="M203,95.1l0-5.8c0-0.9-0.2-1.6-0.6-2c-0.4-0.4-1-0.6-1.8-0.6c-1.1,0-1.9,0.3-2.4,0.8c-0.5,0.5-0.7,1.4-0.7,2.6
		l0,4.9h-0.8l-0.1-8.9h0.7l0.2,1.2h0.1c0.6-0.9,1.6-1.4,3.1-1.4c2,0,3,1.1,3.1,3.3l0,5.9H203z"/>
	<path class="st0" d="M210,86.7c-0.8,0-1.6,0.3-2,0.9c-0.5,0.6-0.8,1.4-0.9,2.5l5.5,0c0-1.1-0.2-1.9-0.7-2.4
		C211.4,87,210.8,86.7,210,86.7L210,86.7z M210.3,95.3c-1.3,0-2.3-0.4-3-1.2c-0.7-0.8-1.1-1.9-1.1-3.4c0-1.4,0.3-2.6,1-3.4
		c0.7-0.9,1.6-1.3,2.8-1.3c1.1,0,1.9,0.3,2.5,1.1c0.6,0.7,0.9,1.7,0.9,3v0.7l-6.4,0c0,1.2,0.3,2.2,0.9,2.8c0.6,0.7,1.4,1,2.4,1
		c0.5,0,1-0.1,1.3-0.1c0.4-0.1,0.9-0.2,1.5-0.5v0.7c-0.5,0.2-1,0.4-1.4,0.4C211.3,95.2,210.8,95.2,210.3,95.3L210.3,95.3z"/>
	<path class="st0" d="M221.5,92.7c0,0.8-0.3,1.4-0.9,1.9c-0.6,0.4-1.5,0.7-2.6,0.7c-1.2,0-2.1-0.2-2.9-0.5v-0.9
		c0.9,0.5,1.9,0.7,2.9,0.7c0.9,0,1.6-0.2,2-0.4c0.4-0.3,0.7-0.7,0.7-1.2c0-0.5-0.2-0.8-0.6-1.1c-0.4-0.3-1-0.6-1.8-0.9
		c-0.9-0.3-1.5-0.6-1.9-0.8c-0.3-0.2-0.6-0.5-0.8-0.8c-0.2-0.3-0.3-0.6-0.3-1.1c0-0.7,0.2-1.2,0.8-1.6c0.6-0.4,1.4-0.6,2.4-0.6
		s1.9,0.2,2.8,0.5l-0.3,0.7c-0.9-0.4-1.7-0.5-2.4-0.5s-1.3,0.1-1.7,0.4c-0.4,0.2-0.7,0.6-0.7,1c0,0.5,0.2,0.8,0.5,1.1
		c0.3,0.3,1,0.6,2,0.9c0.8,0.3,1.4,0.6,1.8,0.8c0.3,0.2,0.6,0.5,0.8,0.8C221.4,91.9,221.5,92.3,221.5,92.7L221.5,92.7z"/>
</g>
</svg>
